<svg xmlns="http://www.w3.org/2000/svg" viewBox="0 0 144 144" fill="#a855f7"><g id="a52e7f45-bf94-4bf4-ba6a-93ac0a5be22a" data-name="Layer 2"><g id="f7af9878-faf0-42fb-a371-c09b7cf90367" data-name="Layer 1"><path d="M0,43.31V4.5A12.86,12.86,0,0,1,1.68,1.58,11.5,11.5,0,0,1,4.5,0H57.09a2.19,2.19,0,0,0,.47.3c2.89,1,3.9,2.34,3.9,5.36V17.47c0,2,0,2,2,2q17,0,34,0a21.72,21.72,0,0,1,3.76.4,28.4,28.4,0,0,1,22.93,32.28C122.43,63.41,116,71,105.42,75c-4.6,1.75-9.43,1.79-14.26,1.66a3.63,3.63,0,0,0-3,1.2C84.09,82,79.84,86.05,75.8,90.28a4.88,4.88,0,0,1-7.58,0c-4.11-4.3-8.39-8.44-12.63-12.62a2.89,2.89,0,0,0-1.6-1,52.57,52.57,0,0,0-8.42.06A19.44,19.44,0,0,0,28.79,99c1.39,9.06,9.42,16.42,18.6,16.47,11.2.06,22.4,0,33.6,0,1.26,0,1.59-.41,1.57-1.62-.06-4.22,0-8.43,0-12.65a4.59,4.59,0,0,1,4.54-4.88q26.07,0,52.16,0a4.44,4.44,0,0,1,4.34,3.35,9.2,9.2,0,0,0,.41,1V139.5c-.25.58-.49,1.17-.74,1.75-.71,1.65-2.32,2.09-3.76,2.75H86.91a2.19,2.19,0,0,0-.47-.3c-2.88-1-3.9-2.34-3.9-5.36V126.81c0-2.26,0-2.26-2.34-2.26q-15.39,0-30.79,0a40.61,40.61,0,0,1-5.73-.32A28.55,28.55,0,0,1,40.8,68.38c4-1,8-.83,12-.85a3.68,3.68,0,0,0,2.85-1.18C59.8,62.14,64,58,68.18,53.81c2.68-2.68,4.95-2.69,7.62,0C80,58,84.21,62.21,88.45,66.39a3.23,3.23,0,0,0,1.87,1,50.77,50.77,0,0,0,8.55-.23A19.35,19.35,0,0,0,115.2,45.08c-1.35-8.94-9.33-16.4-18.3-16.48-11.34-.12-22.68,0-34-.06-1.12,0-1.45.37-1.44,1.47.05,4.12,0,8.25,0,12.37,0,3.5-1.8,5.31-5.25,5.31H5A4.44,4.44,0,0,1,.39,44.2,7.75,7.75,0,0,0,0,43.31Z"/></g></g></svg>